<svg version="1.0" xmlns="http://www.w3.org/2000/svg"
 width="422.000000pt" height="98.000000pt" viewBox="0 0 422.000000 98.000000"
 preserveAspectRatio="xMidYMid meet">

<g transform="translate(0.000000,98.000000) scale(0.100000,-0.100000)"
fill="#000000" stroke="none">
<path d="M0 519 l0 -460 233 3 c227 3 234 4 282 29 97 49 155 162 175 340 26
232 -51 417 -206 493 -78 38 -183 55 -346 56 l-138 0 0 -461z m358 357 c85
-44 150 -129 177 -231 21 -83 20 -238 -3 -313 -46 -145 -171 -241 -281 -217
-38 8 -87 63 -100 112 -7 22 -11 151 -11 311 0 292 3 312 52 346 34 24 110 20
166 -8z"/>
<path d="M1490 854 c-58 -174 -47 -181 48 -27 33 54 69 107 81 117 27 25 13
36 -46 36 l-41 0 -42 -126z"/>
<path d="M4070 809 c0 -150 -2 -170 -15 -165 -108 41 -217 45 -303 11 -65 -26
-126 -101 -147 -180 -39 -144 2 -298 98 -362 126 -85 342 -63 435 43 64 72 65
81 69 472 l4 352 -70 0 -71 0 0 -171z m-80 -224 c49 -26 73 -86 78 -197 5
-108 -12 -180 -51 -216 -50 -46 -170 -51 -223 -9 -46 36 -64 91 -64 197 0 128
3 137 46 136 21 -1 36 -7 38 -16 2 -8 7 -27 10 -42 4 -18 13 -28 25 -28 14 0
20 10 25 46 3 26 6 59 6 73 0 62 49 87 110 56z"/>
<path d="M1933 660 c-98 -20 -177 -88 -209 -181 -15 -44 -18 -86 -19 -234 l0
-180 66 -3 67 -3 4 203 c4 166 8 211 22 245 25 59 67 83 144 83 78 0 108 -14
135 -64 20 -38 22 -58 25 -254 l3 -212 69 0 69 0 3 217 c3 204 4 220 25 253
29 47 55 61 123 67 42 4 66 1 94 -12 65 -31 70 -52 76 -300 l5 -220 68 -3 68
-3 -3 208 c-3 205 -3 209 -31 266 -19 38 -42 66 -67 83 -74 49 -111 54 -414
53 -155 -1 -300 -5 -323 -9z"/>
<path d="M2882 468 c3 -187 5 -207 26 -254 48 -106 126 -149 272 -148 114 0
168 21 230 92 60 68 70 114 70 329 l0 183 -67 0 -68 0 0 -197 c0 -182 -2 -202
-22 -245 -34 -75 -112 -110 -193 -88 -92 25 -125 126 -118 368 l5 162 -69 0
-69 0 3 -202z"/>
<path d="M997 646 c-122 -44 -196 -149 -197 -277 0 -36 7 -86 16 -112 22 -65
91 -139 156 -167 91 -39 257 -16 306 43 11 12 6 13 -30 6 -24 -4 -74 -8 -112
-9 -94 0 -148 30 -182 103 -13 29 -24 62 -24 75 l0 22 226 0 227 0 -5 65 c-7
81 -45 163 -94 200 -79 60 -200 82 -287 51z m170 -76 c36 -21 67 -75 77 -132
l7 -38 -162 0 -161 0 7 37 c18 97 75 153 155 153 27 0 58 -8 77 -20z"/>
</g>
</svg>
